<?xml version="1.0" encoding="UTF-8"?> <!-- Generator: Adobe Illustrator 24.2.3, SVG Export Plug-In . SVG Version: 6.00 Build 0) --> <svg xmlns="http://www.w3.org/2000/svg" xmlns:xlink="http://www.w3.org/1999/xlink" id="Capa_1" x="0px" y="0px" viewBox="0 0 512 512" style="enable-background:new 0 0 512 512;" xml:space="preserve"> <style type="text/css"> .st0{fill:url(#SVGID_1_);} .st1{fill:url(#SVGID_2_);} .st2{fill:none;stroke:url(#SVGID_3_);stroke-width:15;stroke-miterlimit:10;} </style> <g> <linearGradient id="SVGID_1_" gradientUnits="userSpaceOnUse" x1="131.0439" y1="-136.1439" x2="381.0439" y2="-136.1439" gradientTransform="matrix(1 0 0 1 0 392)"> <stop offset="1.118836e-07" style="stop-color:#1F99E4"></stop> <stop offset="1" style="stop-color:#23AEFA"></stop> </linearGradient> <path class="st0" d="M336.7,232.5l13.1-13.1c5.4-5.4,5.6-13.7,1.1-19.5l29.4-58.4c1.4-2.9,0.9-6.2-1.3-8.5 c-2.2-2.2-5.6-2.8-8.5-1.3L312.1,161c-5.8-4.6-14.2-4.3-19.5,1.1l-13.1,13.1c-4.6,4.6-5.5,11.5-2.7,17c-5,2.9-10.8,4-16.6,3.2 c-9.1-1.3-18.5,1.8-24.9,8.3l-99.9,100c-5.7,5.7-5.7,15,0,20.7l52.1,52.1c5.7,5.7,15,5.7,20.7,0l99.9-99.9 c6.5-6.5,9.6-15.9,8.3-24.9c-0.8-5.8,0.4-11.6,3.2-16.6C325.2,238,332.1,237.2,336.7,232.5L336.7,232.5z M357.1,154.9L339.9,189 l-17-17L357.1,154.9z M302.9,172.6c12.1,12.1,24.4,24.4,36.5,36.5l-13.1,13.1c-12.1-12.1-24.4-24.4-36.5-36.5L302.9,172.6z M301.9,253.8c0.6,4.6-0.9,9.3-4.2,12.6l-99.9,99.9l-52.1-52.1l99.9-99.9c3.3-3.3,7.9-4.8,12.6-4.2c10.1,1.4,20.4-1,28.7-6.7 l21.8,21.8C303,233.5,300.5,243.8,301.9,253.8L301.9,253.8z"></path> <linearGradient id="SVGID_2_" gradientUnits="userSpaceOnUse" x1="334.6408" y1="-104.7418" x2="380.5193" y2="-104.7418" gradientTransform="matrix(1 0 0 1 0 392)"> <stop offset="1.118836e-07" style="stop-color:#1F99E4"></stop> <stop offset="1" style="stop-color:#23AEFA"></stop> </linearGradient> <path class="st1" d="M363.6,259.6c-2.9-4.2-9.1-4.2-12,0c-0.2,0.3-4.1,6-8.1,12.9c-7.9,13.7-8.7,19.4-8.7,22.6 c0,12.7,10.3,22.9,22.9,22.9s22.9-10.3,22.9-22.9c0-3.2-0.9-8.9-8.7-22.6C367.7,265.6,363.7,259.9,363.6,259.6L363.6,259.6z M357.6,303.3c-4.6,0-8.3-3.7-8.3-8.3c0-2.4,3.5-9.7,8.3-17.8c4.8,8,8.3,15.3,8.3,17.8C365.9,299.6,362.1,303.3,357.6,303.3z"></path> </g> <linearGradient id="SVGID_3_" gradientUnits="userSpaceOnUse" x1="23.5" y1="256" x2="488.5" y2="256" gradientTransform="matrix(1 0 0 -1 0 512)"> <stop offset="1.118836e-07" style="stop-color:#1F99E4"></stop> <stop offset="1" style="stop-color:#23AEFA"></stop> </linearGradient> <circle class="st2" cx="256" cy="256" r="225"></circle> </svg> 