<?xml version="1.0" encoding="UTF-8"?> <!-- Generator: Adobe Illustrator 24.2.3, SVG Export Plug-In . SVG Version: 6.00 Build 0) --> <svg xmlns="http://www.w3.org/2000/svg" xmlns:xlink="http://www.w3.org/1999/xlink" id="Capa_1" x="0px" y="0px" viewBox="0 0 512 512" style="enable-background:new 0 0 512 512;" xml:space="preserve"> <style type="text/css"> .st0{fill:url(#SVGID_1_);} .st1{fill:url(#SVGID_2_);} .st2{fill:url(#SVGID_3_);} .st3{fill:url(#SVGID_4_);} .st4{fill:none;stroke:url(#SVGID_5_);stroke-width:15;stroke-miterlimit:10;} </style> <g> <linearGradient id="SVGID_1_" gradientUnits="userSpaceOnUse" x1="131" y1="255.9625" x2="381" y2="255.9625" gradientTransform="matrix(1 0 0 -1 0 512)"> <stop offset="1.118836e-07" style="stop-color:#1F99E4"></stop> <stop offset="1" style="stop-color:#23AEFA"></stop> </linearGradient> <path class="st0" d="M373.7,322.4H221.1l22.6-22.6c11.4-11.4,20.9-24.6,28.1-39c6.3-12.7,14.6-24.2,24.5-34.3l5.2,5.2 c2.9,2.9,7.5,2.9,10.4,0l62.6-63.1c8.5-8.5,8.5-22.5,0-31.1s-22.5-8.5-31.1,0l-62.6,63.1c-2.8,2.9-2.8,7.5,0,10.4l5.2,5.2 c-10.1,9.9-21.6,18.2-34.3,24.5c-14.5,7.2-27.6,16.7-39,28.1l-35.4,35.4c-1,1-1.7,2.3-2,3.6h-37c-4.1,0-7.3,3.3-7.3,7.3v58.6 c0,4.1,3.3,7.3,7.3,7.3h235.4c4.1,0,7.3-3.3,7.3-7.3v-43.9C381,325.7,377.7,322.4,373.7,322.4L373.7,322.4z M353.9,147.8 c2.9-2.8,7.5-2.8,10.4,0s2.8,7.5,0,10.4l-57.5,57.9l-10.4-10.4L353.9,147.8z M223,279.1c11.5-11.5,22.8-19,36.3-25.9 c-6.9,13.4-14.3,24.7-25.9,36.3l-30.2,30.2c-1.6-1.6-8.1-8.1-10.4-10.4L223,279.1z M366.4,366.4H145.6v-43.9h39.6l12.8,12.8 c1.9,1.9,4.6,2.6,7.3,1.9h161.1V366.4z"></path> <linearGradient id="SVGID_2_" gradientUnits="userSpaceOnUse" x1="190.082" y1="277.4652" x2="219.3789" y2="277.4652" gradientTransform="matrix(1 0 0 -1 0 512)"> <stop offset="1.118836e-07" style="stop-color:#1F99E4"></stop> <stop offset="1" style="stop-color:#23AEFA"></stop> </linearGradient> <path class="st1" d="M197.4,249.2c4.1,0,7.3-3.3,7.3-7.3s3.3-7.3,7.3-7.3s7.3-3.3,7.3-7.3s-3.3-7.3-7.3-7.3c-12.1,0-22,9.9-22,22 C190.1,245.9,193.4,249.2,197.4,249.2z"></path> <linearGradient id="SVGID_3_" gradientUnits="userSpaceOnUse" x1="146.1367" y1="248.1683" x2="175.4336" y2="248.1683" gradientTransform="matrix(1 0 0 -1 0 512)"> <stop offset="1.118836e-07" style="stop-color:#1F99E4"></stop> <stop offset="1" style="stop-color:#23AEFA"></stop> </linearGradient> <path class="st2" d="M153.5,263.8c4.1,0,7.3,3.3,7.3,7.3s3.3,7.3,7.3,7.3s7.3-3.3,7.3-7.3c0-12.1-9.9-22-22-22 c-4.1,0-7.3,3.3-7.3,7.3S149.4,263.8,153.5,263.8z"></path> <linearGradient id="SVGID_4_" gradientUnits="userSpaceOnUse" x1="160.7852" y1="321.4105" x2="190.082" y2="321.4105" gradientTransform="matrix(1 0 0 -1 0 512)"> <stop offset="1.118836e-07" style="stop-color:#1F99E4"></stop> <stop offset="1" style="stop-color:#23AEFA"></stop> </linearGradient> <path class="st3" d="M168.1,190.6c4.1,0,7.3,3.3,7.3,7.3s3.3,7.3,7.3,7.3s7.3-3.3,7.3-7.3c0-12.1-9.9-22-22-22 c-4.1,0-7.3,3.3-7.3,7.3S164.1,190.6,168.1,190.6z"></path> </g> <linearGradient id="SVGID_5_" gradientUnits="userSpaceOnUse" x1="23.5" y1="256" x2="488.5" y2="256"> <stop offset="1.118836e-07" style="stop-color:#1F99E4"></stop> <stop offset="1" style="stop-color:#23AEFA"></stop> </linearGradient> <circle class="st4" cx="256" cy="256" r="225"></circle> </svg> 