<?xml version="1.0" encoding="UTF-8"?> <!-- Generator: Adobe Illustrator 24.2.3, SVG Export Plug-In . SVG Version: 6.00 Build 0) --> <svg xmlns="http://www.w3.org/2000/svg" xmlns:xlink="http://www.w3.org/1999/xlink" id="Layer_1" x="0px" y="0px" viewBox="0 0 512 512" style="enable-background:new 0 0 512 512;" xml:space="preserve"> <style type="text/css"> .st0{fill:url(#SVGID_1_);} .st1{fill:url(#SVGID_2_);} .st2{fill:url(#SVGID_3_);} .st3{fill:none;stroke:url(#SVGID_4_);stroke-width:15;stroke-miterlimit:10;} </style> <g> <linearGradient id="SVGID_1_" gradientUnits="userSpaceOnUse" x1="131" y1="216.7894" x2="224.0986" y2="216.7894"> <stop offset="1.118836e-07" style="stop-color:#1F99E4"></stop> <stop offset="1" style="stop-color:#23AEFA"></stop> </linearGradient> <path class="st0" d="M177.5,131c-25.7,0-46.5,20.9-46.5,46.5c0,16.7,8.8,30.5,18.1,45c12.5,19.6,25.5,39.8,21.2,71.7 c-0.5,3.5,1.7,6.9,5.1,8c5,1.5,8-2.3,8.7-3.7c20.8-41.5,40-85,40-121C224.1,151.9,203.2,131,177.5,131z M184.1,264.7 c-3.9-20.6-14-36.5-22.7-50.1c-8.5-13.2-15.8-24.7-15.8-37.1c0-17.6,14.3-31.9,31.9-31.9s31.9,14.3,31.9,31.9 C209.5,203.1,198.4,233.7,184.1,264.7z"></path> <linearGradient id="SVGID_2_" gradientUnits="userSpaceOnUse" x1="209.4498" y1="334.4504" x2="381" y2="334.4504"> <stop offset="1.118836e-07" style="stop-color:#1F99E4"></stop> <stop offset="1" style="stop-color:#23AEFA"></stop> </linearGradient> <path class="st1" d="M334.5,287.9c-16.9,0-36.5,4.2-59.9,12.7c-21.3,7.8-42.8,18.2-61.1,27.3c-3.2,1.6-4.8,5.3-3.7,8.7 c1.1,3.4,4.4,5.6,8,5.1c31.9-4.2,52.1,8.7,71.7,21.2c14.5,9.3,28.3,18.1,45,18.1c25.7,0,46.5-20.9,46.5-46.5 S360.1,287.9,334.5,287.9z M334.5,366.4c-12.5,0-23.9-7.3-37.1-15.8c-13.6-8.7-29.4-18.8-50.1-22.7c31.1-14.3,61.7-25.3,87.2-25.3 c17.6,0,31.9,14.3,31.9,31.9S352,366.4,334.5,366.4z"></path> <linearGradient id="SVGID_3_" gradientUnits="userSpaceOnUse" x1="225.1303" y1="208.9202" x2="381" y2="208.9202"> <stop offset="1.118836e-07" style="stop-color:#1F99E4"></stop> <stop offset="1" style="stop-color:#23AEFA"></stop> </linearGradient> <path class="st2" d="M234.9,286.4c4.1-1.5,101.1-36.1,130.7-65.7c20.4-20.4,20.7-53.7,0-74.3c-20.5-20.5-53.8-20.5-74.3,0 C261.6,176,227,273,225.6,277.1c-0.9,2.7-0.3,5.6,1.7,7.6C229.4,286.8,232.4,287.3,234.9,286.4L234.9,286.4z M301.6,156.7 c14.8-14.8,38.8-14.8,53.6,0c14.8,14.8,14.8,38.8,0,53.6c-20.8,20.8-81.9,45.8-110.3,56.7C255.8,238.6,280.8,177.5,301.6,156.7 L301.6,156.7z"></path> </g> <linearGradient id="SVGID_4_" gradientUnits="userSpaceOnUse" x1="23" y1="255.5" x2="488" y2="255.5"> <stop offset="1.118836e-07" style="stop-color:#1F99E4"></stop> <stop offset="1" style="stop-color:#23AEFA"></stop> </linearGradient> <circle class="st3" cx="255.5" cy="255.5" r="225"></circle> </svg> 