<?xml version="1.0" encoding="UTF-8"?> <!-- Generator: Adobe Illustrator 24.2.3, SVG Export Plug-In . SVG Version: 6.00 Build 0) --> <svg xmlns="http://www.w3.org/2000/svg" xmlns:xlink="http://www.w3.org/1999/xlink" id="Layer_1" x="0px" y="0px" viewBox="0 0 512 512" style="enable-background:new 0 0 512 512;" xml:space="preserve"> <style type="text/css"> .st0{fill:url(#SVGID_1_);} .st1{fill:url(#SVGID_2_);} .st2{fill:url(#SVGID_3_);} .st3{fill:url(#SVGID_4_);} .st4{fill:url(#SVGID_5_);} .st5{fill:none;stroke:url(#SVGID_6_);stroke-width:15;stroke-miterlimit:10;} </style> <g> <linearGradient id="SVGID_1_" gradientUnits="userSpaceOnUse" x1="131" y1="256" x2="381" y2="256"> <stop offset="1.118836e-07" style="stop-color:#1F99E4"></stop> <stop offset="1" style="stop-color:#23AEFA"></stop> </linearGradient> <path class="st0" d="M364.1,236.3l-37.3-5.9c-1.7-0.3-3.2-1.4-4-3c-0.8-1.6-0.7-3.4,0.2-5l8.4-14.5c4.5-7.8,3.2-17.8-3.2-24.1 c-6.4-6.4-16.3-7.7-24.1-3.2l-14.5,8.4c-1.5,0.9-3.4,1-5,0.2c-1.6-0.8-2.7-2.2-3-4l-5.9-37.3c-1.6-9.8-9.9-16.9-19.7-16.9 s-18.2,7.1-19.7,16.9l-5.9,37.3c-0.3,1.7-1.4,3.2-3,4c-1.6,0.8-3.4,0.7-5-0.2l-14.5-8.4c-7.8-4.5-17.7-3.2-24.1,3.2 c-6.4,6.4-7.7,16.3-3.2,24.1l8.4,14.5c0.9,1.5,1,3.4,0.2,5c-0.8,1.6-2.2,2.7-4,3l-37.3,5.9c-9.8,1.6-16.9,9.9-16.9,19.7 c0,9.9,7.1,18.2,16.9,19.7l37.3,5.9c1.7,0.3,3.2,1.4,4,3c0.8,1.6,0.7,3.4-0.2,5l-8.4,14.5c-4.5,7.8-3.2,17.7,3.2,24.1 c6.4,6.4,16.3,7.7,24.1,3.2l14.5-8.4c1.5-0.9,3.4-1,5-0.2c1.6,0.8,2.7,2.2,3,4l5.9,37.3c1.6,9.8,9.9,16.9,19.7,16.9 c9.9,0,18.2-7.1,19.7-16.9l5.9-37.3c0.3-1.7,1.4-3.2,3-4c1.6-0.8,3.4-0.7,5,0.2l14.5,8.4c7.8,4.5,17.8,3.2,24.1-3.2 c6.4-6.4,7.7-16.3,3.2-24.1l-8.4-14.5c-0.9-1.5-1-3.4-0.2-5c0.8-1.6,2.2-2.7,4-3l37.3-5.9c9.8-1.6,16.9-9.9,16.9-19.7 C381,246.1,373.9,237.8,364.1,236.3L364.1,236.3z M361.9,261.3l-37.3,5.9c-6.5,1-12.1,5.2-14.9,11.1c-2.8,6-2.6,12.9,0.7,18.6 l8.4,14.5c1.2,2.1,0.9,4.7-0.9,6.5c-2.5,2.5-5.6,1.4-6.4,0.8l-14.5-8.4c-7.4-4.3-14.7-2.6-18.6-0.7c-5.9,2.8-10.1,8.4-11.1,14.9 l-5.9,37.3c-0.4,2.7-2.6,4.5-5.3,4.5c-2.7,0-4.9-1.9-5.3-4.5l-5.9-37.3c-1-6.5-5.2-12.1-11.2-14.9c-3.9-1.8-11.2-3.5-18.6,0.7 l-14.5,8.4c-0.9,0.5-3.9,1.7-6.5-0.8c-1.7-1.7-2.1-4.4-0.8-6.4l8.4-14.5c3.3-5.7,3.6-12.7,0.7-18.6c-2.8-6-8.4-10.1-14.9-11.2 l-37.3-5.9c-2.7-0.4-4.5-2.6-4.5-5.3c0-2.7,1.9-4.9,4.5-5.3l37.3-5.9c6.5-1,12.1-5.2,14.9-11.2c2.8-5.9,2.6-12.9-0.7-18.6 l-8.4-14.5c-1.2-2.1-0.9-4.7,0.8-6.5c2.5-2.5,5.6-1.4,6.4-0.8l14.5,8.4c7.4,4.3,14.7,2.6,18.6,0.7c6-2.8,10.1-8.4,11.2-14.9 l5.9-37.3c0.4-2.7,2.6-4.5,5.3-4.5c2.7,0,4.9,1.9,5.3,4.5l5.9,37.3c1,6.5,5.2,12.1,11.1,14.9c3.9,1.8,11.2,3.6,18.6-0.7l14.5-8.4 c0.9-0.5,3.9-1.7,6.5,0.9c1.7,1.7,2.1,4.4,0.8,6.4l-8.4,14.5c-3.3,5.7-3.6,12.7-0.7,18.6c2.8,5.9,8.4,10.1,14.9,11.1l37.3,5.9 c2.7,0.4,4.5,2.6,4.5,5.3C366.4,258.7,364.5,260.9,361.9,261.3L361.9,261.3z"></path> <linearGradient id="SVGID_2_" gradientUnits="userSpaceOnUse" x1="131" y1="357.9856" x2="177.0283" y2="357.9856"> <stop offset="1.118836e-07" style="stop-color:#1F99E4"></stop> <stop offset="1" style="stop-color:#23AEFA"></stop> </linearGradient> <path class="st1" d="M154,335c-12.7,0-23,10.3-23,23s10.3,23,23,23s23-10.3,23-23S166.7,335,154,335z M154,366.4 c-4.6,0-8.4-3.8-8.4-8.4s3.8-8.4,8.4-8.4s8.4,3.8,8.4,8.4S158.6,366.4,154,366.4z"></path> <linearGradient id="SVGID_3_" gradientUnits="userSpaceOnUse" x1="131" y1="154.0144" x2="177.0283" y2="154.0144"> <stop offset="1.118836e-07" style="stop-color:#1F99E4"></stop> <stop offset="1" style="stop-color:#23AEFA"></stop> </linearGradient> <path class="st2" d="M154,177c12.7,0,23-10.3,23-23s-10.3-23-23-23s-23,10.3-23,23S141.3,177,154,177z M154,145.6 c4.6,0,8.4,3.8,8.4,8.4s-3.8,8.4-8.4,8.4s-8.4-3.8-8.4-8.4S149.4,145.6,154,145.6z"></path> <linearGradient id="SVGID_4_" gradientUnits="userSpaceOnUse" x1="334.9712" y1="357.9856" x2="381" y2="357.9856"> <stop offset="1.118836e-07" style="stop-color:#1F99E4"></stop> <stop offset="1" style="stop-color:#23AEFA"></stop> </linearGradient> <path class="st3" d="M358,335c-12.7,0-23,10.3-23,23s10.3,23,23,23s23-10.3,23-23S370.7,335,358,335z M358,366.4 c-4.6,0-8.4-3.8-8.4-8.4s3.8-8.4,8.4-8.4s8.4,3.8,8.4,8.4S362.6,366.4,358,366.4z"></path> <linearGradient id="SVGID_5_" gradientUnits="userSpaceOnUse" x1="334.9712" y1="154.0144" x2="381" y2="154.0144"> <stop offset="1.118836e-07" style="stop-color:#1F99E4"></stop> <stop offset="1" style="stop-color:#23AEFA"></stop> </linearGradient> <path class="st4" d="M358,177c12.7,0,23-10.3,23-23s-10.3-23-23-23s-23,10.3-23,23S345.3,177,358,177z M358,145.6 c4.6,0,8.4,3.8,8.4,8.4s-3.8,8.4-8.4,8.4s-8.4-3.8-8.4-8.4S353.4,145.6,358,145.6z"></path> </g> <linearGradient id="SVGID_6_" gradientUnits="userSpaceOnUse" x1="23" y1="255.5" x2="488" y2="255.5"> <stop offset="1.118836e-07" style="stop-color:#1F99E4"></stop> <stop offset="1" style="stop-color:#23AEFA"></stop> </linearGradient> <circle class="st5" cx="255.5" cy="255.5" r="225"></circle> </svg> 