<?xml version="1.0" encoding="UTF-8"?> <!-- Generator: Adobe Illustrator 24.2.3, SVG Export Plug-In . SVG Version: 6.00 Build 0) --> <svg xmlns="http://www.w3.org/2000/svg" xmlns:xlink="http://www.w3.org/1999/xlink" id="Capa_1" x="0px" y="0px" viewBox="0 0 512 512" style="enable-background:new 0 0 512 512;" xml:space="preserve"> <style type="text/css"> .st0{fill:url(#SVGID_1_);} .st1{fill:url(#SVGID_2_);} .st2{fill:url(#SVGID_3_);} .st3{fill:none;stroke:url(#SVGID_4_);stroke-width:15;stroke-miterlimit:10;} </style> <g> <g> <g> <linearGradient id="SVGID_1_" gradientUnits="userSpaceOnUse" x1="168.75" y1="228.6828" x2="383.25" y2="228.6828" gradientTransform="matrix(1 0 0 -1 0 512)"> <stop offset="1.118836e-07" style="stop-color:#1F99E4"></stop> <stop offset="1" style="stop-color:#23AEFA"></stop> </linearGradient> <path class="st0" d="M339.9,224.4c-1.7,0-3.5,0.1-5.2,0.3v-21.6c0-4.1-3.4-7.5-7.5-7.5H176.3c-4.1,0-7.5,3.4-7.5,7.5v108.3 c0,11.7,6.9,21.9,16.9,26.5c-1.6,3.1-2.5,6.6-2.5,10.4c0,12.5,10.2,22.7,22.7,22.7h91.7c12.5,0,22.7-10.2,22.7-22.7 c0-3.7-0.9-7.3-2.5-10.4c10-4.6,16.9-14.7,16.9-26.5c1.7,0.2,3.4,0.3,5.2,0.3c23.9,0,43.4-19.6,43.4-43.7 S363.8,224.4,339.9,224.4z M297.6,356h-91.7c-4.2,0-7.7-3.5-7.7-7.7s3.5-7.7,7.7-7.7h91.7c4.2,0,7.7,3.5,7.7,7.7 S301.8,356,297.6,356z M319.7,311.4c0,7.8-6.3,14.2-14,14.2h-8.1h-91.7h-8.1c-7.7,0-14-6.4-14-14.2V210.6h135.9V311.4 L319.7,311.4z M339.9,296.8c-1.8,0-3.5-0.2-5.2-0.5v-56.4c1.7-0.3,3.4-0.5,5.2-0.5c15.6,0,28.4,12.9,28.4,28.7 C368.2,283.9,355.5,296.8,339.9,296.8z"></path> </g> </g> <g> <g> <linearGradient id="SVGID_2_" gradientUnits="userSpaceOnUse" x1="219.1086" y1="361.9003" x2="243.4717" y2="361.9003" gradientTransform="matrix(1 0 0 -1 0 512)"> <stop offset="1.118836e-07" style="stop-color:#1F99E4"></stop> <stop offset="1" style="stop-color:#23AEFA"></stop> </linearGradient> <path class="st1" d="M237.3,145.6c-3-3.9-3.8-7.7-2.4-12c0.2-0.6,0.5-1.2,0.7-1.8c1.4-2.9,0.8-6.4-1.5-8.7l0,0 c-3.7-3.6-9.9-2.5-12.1,2.2c-3.6,7.8-5,18.6,3.3,29.4c3,3.9,3.8,7.9,2.5,12.1c-0.2,0.6-0.4,1.2-0.7,1.7c-1.3,2.9-0.7,6.4,1.6,8.6 c3.7,3.6,9.9,2.4,12.1-2.3C244.4,167.1,245.5,156.3,237.3,145.6z"></path> </g> </g> <g> <g> <linearGradient id="SVGID_3_" gradientUnits="userSpaceOnUse" x1="248.7182" y1="361.8897" x2="273.0887" y2="361.8897" gradientTransform="matrix(1 0 0 -1 0 512)"> <stop offset="1.118836e-07" style="stop-color:#1F99E4"></stop> <stop offset="1" style="stop-color:#23AEFA"></stop> </linearGradient> <path class="st2" d="M266.9,145.6c-3-3.9-3.8-7.7-2.4-12c0.2-0.6,0.4-1.2,0.7-1.8c1.4-2.9,0.8-6.4-1.5-8.6l0,0 c-3.7-3.7-9.9-2.6-12.1,2.1c-3.6,7.8-5,18.6,3.4,29.4c3,3.9,3.8,7.9,2.5,12.1c-0.2,0.6-0.4,1.2-0.7,1.7c-1.3,2.9-0.7,6.4,1.6,8.6 c3.7,3.6,9.9,2.4,12.1-2.3C274,167.1,275.1,156.3,266.9,145.6z"></path> </g> </g> </g> <linearGradient id="SVGID_4_" gradientUnits="userSpaceOnUse" x1="23" y1="256.5" x2="488" y2="256.5" gradientTransform="matrix(1 0 0 -1 0 512)"> <stop offset="1.118836e-07" style="stop-color:#1F99E4"></stop> <stop offset="1" style="stop-color:#23AEFA"></stop> </linearGradient> <circle class="st3" cx="255.5" cy="255.5" r="225"></circle> </svg> 