<?xml version="1.0" encoding="UTF-8"?> <!-- Generator: Adobe Illustrator 24.2.3, SVG Export Plug-In . SVG Version: 6.00 Build 0) --> <svg xmlns="http://www.w3.org/2000/svg" xmlns:xlink="http://www.w3.org/1999/xlink" id="Capa_1" x="0px" y="0px" viewBox="0 0 512 512" style="enable-background:new 0 0 512 512;" xml:space="preserve"> <style type="text/css"> .st0{fill:#23AEFA;} .st1{fill:none;stroke:url(#SVGID_1_);stroke-width:15;stroke-miterlimit:10;} </style> <g> <g> <path class="st0" d="M324.2,216.5l-12.5-79.2c-0.6-3.6-3.7-6.3-7.4-6.3h-96.6c-3.7,0-6.8,2.7-7.4,6.3l-12.5,79.2 c-3.2,20,2.6,40.2,15.7,55.6c11.5,13.5,27.6,21.9,45,23.8V366h-33c-4.1,0-7.5,3.3-7.5,7.5c0,4.1,3.3,7.5,7.5,7.5h80.9 c4.1,0,7.5-3.3,7.5-7.5s-3.3-7.5-7.5-7.5h-33v-70.1c17.4-1.9,33.5-10.3,45-23.8C321.6,256.8,327.3,236.5,324.2,216.5z M214.1,146 h83.8l6.4,40.8h-96.7L214.1,146z M297.1,262.4c-10.3,12-25.3,18.9-41.1,18.9s-30.8-6.9-41.1-18.9c-10.3-12-14.8-27.9-12.3-43.6 l2.7-17.1h101.4l2.7,17.1C311.9,234.5,307.4,250.4,297.1,262.4z"></path> </g> </g> <linearGradient id="SVGID_1_" gradientUnits="userSpaceOnUse" x1="23" y1="255.5" x2="488" y2="255.5"> <stop offset="1.118836e-07" style="stop-color:#1F99E4"></stop> <stop offset="1" style="stop-color:#23AEFA"></stop> </linearGradient> <circle class="st1" cx="255.5" cy="255.5" r="225"></circle> </svg> 